<?xml version="1.0" encoding="UTF-8" standalone="no"?>
<!-- Generator: Adobe Illustrator 16.0.0, SVG Export Plug-In . SVG Version: 6.00 Build 0)  -->

<svg
   xmlns:dc="http://purl.org/dc/elements/1.1/"
   xmlns:cc="http://creativecommons.org/ns#"
   xmlns:rdf="http://www.w3.org/1999/02/22-rdf-syntax-ns#"
   xmlns:svg="http://www.w3.org/2000/svg"
   xmlns="http://www.w3.org/2000/svg"
   xmlns:sodipodi="http://sodipodi.sourceforge.net/DTD/sodipodi-0.dtd"
   xmlns:inkscape="http://www.inkscape.org/namespaces/inkscape"
   version="1.1"
   id="US_UK_Download_on_the"
   x="0px"
   y="0px"
   width="135px"
   height="40px"
   viewBox="0 0 135 40"
   enable-background="new 0 0 135 40"
   xml:space="preserve"
   inkscape:version="0.48.5 r10040"
   sodipodi:docname="online.svg"><metadata
     id="metadata3052"><rdf:RDF><cc:Work
         rdf:about=""><dc:format>image/svg+xml</dc:format><dc:type
           rdf:resource="http://purl.org/dc/dcmitype/StillImage" /></cc:Work></rdf:RDF></metadata><defs
     id="defs3050" /><sodipodi:namedview
     pagecolor="#ffffff"
     bordercolor="#666666"
     borderopacity="1"
     objecttolerance="10"
     gridtolerance="10"
     guidetolerance="10"
     inkscape:pageopacity="0"
     inkscape:pageshadow="2"
     inkscape:window-width="1595"
     inkscape:window-height="1093"
     id="namedview3048"
     showgrid="false"
     inkscape:zoom="2.5703704"
     inkscape:cx="2.5288184"
     inkscape:cy="20"
     inkscape:window-x="159"
     inkscape:window-y="10"
     inkscape:window-maximized="0"
     inkscape:current-layer="g2986" /><g
     id="g2986"><path
       fill="#A6A6A6"
       d="M130.197,40H4.729C2.122,40,0,37.872,0,35.267V4.726C0,2.12,2.122,0,4.729,0h125.468   C132.803,0,135,2.12,135,4.726v30.541C135,37.872,132.803,40,130.197,40L130.197,40z"
       id="path2988" /><path
       d="M134.032,35.268c0,2.116-1.714,3.83-3.834,3.83H4.729c-2.119,0-3.839-1.714-3.839-3.83V4.725   c0-2.115,1.72-3.835,3.839-3.835h125.468c2.121,0,3.834,1.72,3.834,3.835L134.032,35.268L134.032,35.268z"
       id="path2990" /><text
       xml:space="preserve"
       style="font-size:40px;font-style:normal;font-weight:normal;line-height:125%;letter-spacing:0px;word-spacing:0px;fill:#000000;fill-opacity:1;stroke:none;font-family:Sans"
       x="33.847263"
       y="31.829971"
       id="text3054"
       sodipodi:linespacing="125%"><tspan
         sodipodi:role="line"
         id="tspan3056"
         x="33.847263"
         y="31.829971" /></text>
<g
       style="font-size:40px;font-style:normal;font-weight:normal;line-height:125%;letter-spacing:0px;word-spacing:0px;fill:#ffffff;fill-opacity:1;stroke:none;font-family:Sans"
       id="text3058"
       transform="matrix(0.88970483,0,0,0.90586338,7.7932408,2.2272416)"><path
         d="m 36.419759,10.847174 c 0.947895,1.041686 1.671853,2.317726 2.171875,3.828125 0.510393,1.510432 0.765601,3.223972 0.765625,5.140625 -2.4e-5,1.916676 -0.26044,3.635424 -0.78125,5.15625 -0.510439,1.510421 -1.229188,2.770837 -2.15625,3.78125 -0.958353,1.052085 -2.093769,1.843751 -3.40625,2.375 -1.302099,0.531249 -2.791681,0.796874 -4.46875,0.796875 -1.635428,-10e-7 -3.12501,-0.270834 -4.46875,-0.8125 -1.33334,-0.541666 -2.468756,-1.328124 -3.40625,-2.359375 -0.937504,-1.031247 -1.661462,-2.29687 -2.171875,-3.796875 -0.500002,-1.499992 -0.750002,-3.213532 -0.75,-5.140625 -2e-6,-1.89582 0.249998,-3.593735 0.75,-5.09375 0.499997,-1.510399 1.229163,-2.802064 2.1875,-3.875 0.916661,-1.020812 2.052076,-1.8020612 3.40625,-2.3437503 1.364574,-0.5416432 2.848947,-0.8124763 4.453125,-0.8125 1.666652,2.37e-5 3.161442,0.2760651 4.484375,0.828125 1.333315,0.541689 2.463522,1.3177299 3.390625,2.3281253 m -0.28125,8.96875 c -2e-5,-3.020819 -0.677103,-5.348942 -2.03125,-6.984375 -1.354184,-1.645813 -3.20314,-2.468729 -5.546875,-2.46875 -2.364594,2.1e-5 -4.223967,0.822937 -5.578125,2.46875 -1.343756,1.635433 -2.01563,3.963556 -2.015625,6.984375 -5e-6,3.052092 0.687494,5.390631 2.0625,7.015625 1.374991,1.614586 3.218739,2.421877 5.53125,2.421875 2.312485,2e-6 4.151025,-0.807289 5.515625,-2.421875 1.37498,-1.624994 2.06248,-3.963533 2.0625,-7.015625"
         style="font-size:32px;font-variant:normal;font-stretch:normal;fill:#ffffff;fill-opacity:1;font-family:DecoType Naskh;-inkscape-font-specification:DecoType Naskh"
         id="path3063"
         inkscape:connector-curvature="0" /><path
         d="m 58.622884,31.440924 -2.9375,0 0,-9.9375 c -1.5e-5,-0.802073 -0.04689,-1.552072 -0.140625,-2.25 -0.09376,-0.708321 -0.265639,-1.260404 -0.515625,-1.65625 -0.260431,-0.437486 -0.63543,-0.760402 -1.125,-0.96875 -0.489596,-0.218735 -1.125012,-0.32811 -1.90625,-0.328125 -0.802094,1.5e-5 -1.640634,0.197931 -2.515625,0.59375 -0.875008,0.395847 -1.713549,0.901055 -2.515625,1.515625 l 0,13.03125 -2.9375,0 0,-17.453125 2.9375,0 0,1.9375 c 0.91666,-0.760401 1.864575,-1.35415 2.84375,-1.78125 0.979157,-0.427066 1.984364,-0.640607 3.015625,-0.640625 1.885403,1.8e-5 3.322901,0.567725 4.3125,1.703125 0.989566,1.135431 1.484357,2.770846 1.484375,4.90625 l 0,11.328125"
         style="font-size:32px;font-variant:normal;font-stretch:normal;fill:#ffffff;fill-opacity:1;font-family:DecoType Naskh;-inkscape-font-specification:DecoType Naskh"
         id="path3065"
         inkscape:connector-curvature="0" /><path
         d="m 67.247884,31.440924 -2.9375,0 0,-24.3125003 2.9375,0 0,24.3125003"
         style="font-size:32px;font-variant:normal;font-stretch:normal;fill:#ffffff;fill-opacity:1;font-family:DecoType Naskh;-inkscape-font-specification:DecoType Naskh"
         id="path3067"
         inkscape:connector-curvature="0" /><path
         d="m 76.122884,11.065924 -3.3125,0 0,-3.0468753 3.3125,0 0,3.0468753 m -0.1875,20.375 -2.9375,0 0,-17.453125 2.9375,0 0,17.453125"
         style="font-size:32px;font-variant:normal;font-stretch:normal;fill:#ffffff;fill-opacity:1;font-family:DecoType Naskh;-inkscape-font-specification:DecoType Naskh"
         id="path3069"
         inkscape:connector-curvature="0" /><path
         d="m 96.247884,31.440924 -2.9375,0 0,-9.9375 c -1.5e-5,-0.802073 -0.04689,-1.552072 -0.140625,-2.25 -0.09377,-0.708321 -0.265639,-1.260404 -0.515625,-1.65625 -0.260431,-0.437486 -0.63543,-0.760402 -1.125,-0.96875 -0.489596,-0.218735 -1.125012,-0.32811 -1.90625,-0.328125 -0.802094,1.5e-5 -1.640634,0.197931 -2.515625,0.59375 -0.875008,0.395847 -1.713549,0.901055 -2.515625,1.515625 l 0,13.03125 -2.9375,0 0,-17.453125 2.9375,0 0,1.9375 c 0.91666,-0.760401 1.864575,-1.35415 2.84375,-1.78125 0.979157,-0.427066 1.984364,-0.640607 3.015625,-0.640625 1.885403,1.8e-5 3.322901,0.567725 4.3125,1.703125 0.989566,1.135431 1.484357,2.770846 1.484375,4.90625 l 0,11.328125"
         style="font-size:32px;font-variant:normal;font-stretch:normal;fill:#ffffff;fill-opacity:1;font-family:DecoType Naskh;-inkscape-font-specification:DecoType Naskh"
         id="path3071"
         inkscape:connector-curvature="0" /><path
         d="m 116.51351,23.019049 -12.85938,0 c 0,1.072924 0.16146,2.010423 0.48438,2.8125 0.32291,0.791671 0.76562,1.442712 1.32812,1.953125 0.54166,0.500003 1.18229,0.875002 1.92188,1.125 0.74999,0.250002 1.57291,0.375002 2.46875,0.375 1.18749,2e-6 2.38019,-0.234373 3.57812,-0.703125 1.20832,-0.479164 2.0677,-0.947913 2.57813,-1.40625 l 0.15625,0 0,3.203125 c -0.9896,0.416667 -2.00002,0.765625 -3.03125,1.046875 -1.03126,0.281249 -2.1146,0.421874 -3.25,0.421875 -2.89584,-10e-7 -5.15626,-0.78125 -6.78125,-2.34375 -1.625,-1.572913 -2.4375,-3.802078 -2.4375,-6.6875 0,-2.854155 0.77604,-5.119778 2.32812,-6.796875 1.5625,-1.677067 3.61458,-2.515607 6.15625,-2.515625 2.35416,1.8e-5 4.16666,0.687517 5.4375,2.0625 1.28124,1.375014 1.92186,3.328137 1.92188,5.859375 l 0,1.59375 m -2.85938,-2.25 c -0.0104,-1.541655 -0.40105,-2.734362 -1.17187,-3.578125 -0.76043,-0.843735 -1.92189,-1.26561 -3.48438,-1.265625 -1.57292,1.5e-5 -2.82813,0.463556 -3.76562,1.390625 -0.92709,0.927096 -1.45313,2.078137 -1.57813,3.453125 l 10,0"
         style="font-size:32px;font-variant:normal;font-stretch:normal;fill:#ffffff;fill-opacity:1;font-family:DecoType Naskh;-inkscape-font-specification:DecoType Naskh"
         id="path3073"
         inkscape:connector-curvature="0" /></g></g></svg>